<svg width="183" height="1079" viewBox="0 0 183 1079" fill="none" xmlns="http://www.w3.org/2000/svg">
<circle cx="6" cy="926" r="6" fill="#D9D9D9"/>
<circle cx="6" cy="944" r="6" fill="#D9D9D9"/>
<circle cx="6" cy="962" r="6" fill="#D9D9D9"/>
<circle cx="6" cy="980" r="6" fill="#D9D9D9"/>
<circle cx="6" cy="998" r="6" fill="#D9D9D9"/>
<circle cx="6" cy="1016" r="6" fill="#D9D9D9"/>
<circle cx="6" cy="1034" r="6" fill="#D9D9D9"/>
<circle cx="6" cy="1052" r="6" fill="#D9D9D9"/>
<circle cx="6" cy="1070" r="6" fill="#D9D9D9"/>
<circle cx="25" cy="926" r="6" fill="#D9D9D9"/>
<circle cx="25" cy="944" r="6" fill="#D9D9D9"/>
<circle cx="25" cy="962" r="6" fill="#F2F2F2"/>
<circle cx="25" cy="980" r="6" fill="#D9D9D9"/>
<circle cx="25" cy="998" r="6" fill="#D9D9D9"/>
<circle cx="25" cy="1016" r="6" fill="#D9D9D9"/>
<circle cx="25" cy="1034" r="6" fill="#D9D9D9"/>
<circle cx="25" cy="1052" r="6" fill="#D9D9D9"/>
<circle cx="25" cy="1070" r="6" fill="#D9D9D9"/>
<circle cx="44" cy="926" r="6" fill="#D9D9D9"/>
<circle cx="44" cy="944" r="6" fill="#EAEAEA"/>
<circle cx="44" cy="962" r="6" fill="#D9D9D9"/>
<circle cx="44" cy="980" r="6" fill="#D9D9D9"/>
<circle cx="44" cy="998" r="6" fill="#D9D9D9"/>
<circle cx="44" cy="1016" r="6" fill="#D9D9D9"/>
<circle cx="44" cy="1034" r="6" fill="#D9D9D9"/>
<circle cx="44" cy="1052" r="6" fill="#D9D9D9"/>
<circle cx="44" cy="1070" r="6" fill="#D9D9D9"/>
<circle cx="63" cy="926" r="6" fill="#D9D9D9"/>
<circle cx="63" cy="944" r="6" fill="#D9D9D9"/>
<circle cx="63" cy="962" r="6" fill="#EDEDED"/>
<circle cx="63" cy="980" r="6" fill="#D9D9D9"/>
<circle cx="63" cy="998" r="6" fill="#D9D9D9"/>
<circle cx="63" cy="1016" r="6" fill="#D9D9D9"/>
<circle cx="63" cy="1034" r="6" fill="#D9D9D9"/>
<circle cx="63" cy="1052" r="6" fill="#D9D9D9"/>
<circle cx="63" cy="1070" r="6" fill="#D9D9D9"/>
<circle cx="82" cy="926" r="6" fill="#D9D9D9"/>
<circle cx="82" cy="944" r="6" fill="#D9D9D9"/>
<circle cx="82" cy="962" r="6" fill="#D9D9D9"/>
<circle cx="82" cy="980" r="6" fill="#D9D9D9"/>
<circle cx="82" cy="998" r="6" fill="#D9D9D9"/>
<circle cx="82" cy="1016" r="6" fill="#D9D9D9"/>
<circle cx="82" cy="1034" r="6" fill="#D9D9D9"/>
<circle cx="82" cy="1052" r="6" fill="#D9D9D9"/>
<circle cx="82" cy="1070" r="6" fill="#D9D9D9"/>
<circle cx="101" cy="926" r="6" fill="#D9D9D9"/>
<circle cx="101" cy="944" r="6" fill="#D9D9D9"/>
<circle cx="101" cy="962" r="6" fill="#D9D9D9"/>
<circle cx="101" cy="980" r="6" fill="#D9D9D9"/>
<circle cx="101" cy="998" r="6" fill="#D9D9D9"/>
<circle cx="101" cy="1016" r="6" fill="#E8E8E8"/>
<circle cx="101" cy="1034" r="6" fill="#D9D9D9"/>
<circle cx="101" cy="1052" r="6" fill="#D9D9D9"/>
<circle cx="101" cy="1070" r="6" fill="#D9D9D9"/>
<circle cx="120" cy="926" r="6" fill="#D9D9D9"/>
<circle cx="120" cy="944" r="6" fill="#D9D9D9"/>
<circle cx="120" cy="962" r="6" fill="#D9D9D9"/>
<circle cx="120" cy="980" r="6" fill="#D9D9D9"/>
<circle cx="120" cy="998" r="6" fill="#D9D9D9"/>
<circle cx="120" cy="1016" r="6" fill="#D9D9D9"/>
<circle cx="120" cy="1034" r="6" fill="#D9D9D9"/>
<circle cx="120" cy="1052" r="6" fill="#D9D9D9"/>
<circle cx="120" cy="1070" r="6" fill="#D9D9D9"/>
<circle cx="139" cy="926" r="6" fill="#D9D9D9"/>
<circle cx="139" cy="944" r="6" fill="#D9D9D9"/>
<circle cx="139" cy="962" r="6" fill="#D9D9D9"/>
<circle cx="139" cy="980" r="6" fill="#D9D9D9"/>
<circle cx="139" cy="998" r="6" fill="#D9D9D9"/>
<circle cx="139" cy="1016" r="6" fill="#D9D9D9"/>
<circle cx="139" cy="1034" r="6" fill="#D9D9D9"/>
<circle cx="139" cy="1052" r="6" fill="#D9D9D9"/>
<circle cx="139" cy="1070" r="6" fill="#D9D9D9"/>
<circle cx="158" cy="926" r="6" fill="#D9D9D9"/>
<circle cx="158" cy="944" r="6" fill="#D9D9D9"/>
<circle cx="158" cy="962" r="6" fill="#D9D9D9"/>
<circle cx="158" cy="980" r="6" fill="#D9D9D9"/>
<circle cx="158" cy="998" r="6" fill="#D9D9D9"/>
<circle cx="158" cy="1016" r="6" fill="#D9D9D9"/>
<circle cx="158" cy="1034" r="6" fill="#D9D9D9"/>
<circle cx="158" cy="1052" r="6" fill="#D9D9D9"/>
<circle cx="158" cy="1070" r="6" fill="#D9D9D9"/>
<circle cx="177" cy="926" r="6" fill="#D9D9D9"/>
<circle cx="177" cy="944" r="6" fill="#D9D9D9"/>
<circle cx="177" cy="962" r="6" fill="#D9D9D9"/>
<circle cx="177" cy="980" r="6" fill="#D9D9D9"/>
<circle cx="177" cy="998" r="6" fill="#D9D9D9"/>
<circle cx="177" cy="1016" r="6" fill="#D9D9D9"/>
<circle cx="177" cy="1034" r="6" fill="#D9D9D9"/>
<circle cx="177" cy="1052" r="6" fill="#D9D9D9"/>
<circle cx="177" cy="1070" r="6" fill="#D9D9D9"/>
<circle cx="6" cy="530" r="6" fill="#D9D9D9"/>
<circle cx="6" cy="204" r="6" fill="#D9D9D9"/>
<circle cx="6" cy="530" r="6" fill="#D9D9D9"/>
<circle cx="6" cy="204" r="6" fill="#D9D9D9"/>
<circle cx="6" cy="548" r="6" fill="#D9D9D9"/>
<circle cx="6" cy="222" r="6" fill="#D9D9D9"/>
<circle cx="6" cy="548" r="6" fill="#D9D9D9"/>
<circle cx="6" cy="222" r="6" fill="#D9D9D9"/>
<circle cx="6" cy="566" r="6" fill="#D9D9D9"/>
<circle cx="6" cy="240" r="6" fill="#D9D9D9"/>
<circle cx="6" cy="566" r="6" fill="#D9D9D9"/>
<circle cx="6" cy="240" r="6" fill="#D9D9D9"/>
<circle cx="6" cy="584" r="6" fill="#D9D9D9"/>
<circle cx="6" cy="258" r="6" fill="#D9D9D9"/>
<circle cx="6" cy="584" r="6" fill="#D9D9D9"/>
<circle cx="6" cy="258" r="6" fill="#D9D9D9"/>
<circle cx="6" cy="602" r="6" fill="#D9D9D9"/>
<circle cx="6" cy="276" r="6" fill="#D9D9D9"/>
<circle cx="6" cy="602" r="6" fill="#D9D9D9"/>
<circle cx="6" cy="276" r="6" fill="#D9D9D9"/>
<circle cx="6" cy="620" r="6" fill="#D9D9D9"/>
<circle cx="6" cy="294" r="6" fill="#D9D9D9"/>
<circle cx="6" cy="620" r="6" fill="#D9D9D9"/>
<circle cx="6" cy="294" r="6" fill="#D9D9D9"/>
<circle cx="6" cy="638" r="6" fill="#D9D9D9"/>
<circle cx="6" cy="312" r="6" fill="#D9D9D9"/>
<circle cx="6" cy="656" r="6" fill="#D9D9D9"/>
<circle cx="6" cy="674" r="6" fill="#D9D9D9"/>
<circle cx="6" cy="692" r="6" fill="#D9D9D9"/>
<circle cx="6" cy="710" r="6" fill="#D9D9D9"/>
<circle cx="25" cy="530" r="6" fill="#D9D9D9"/>
<circle cx="25" cy="204" r="6" fill="#D9D9D9"/>
<circle cx="25" cy="530" r="6" fill="#D9D9D9"/>
<circle cx="25" cy="204" r="6" fill="#D9D9D9"/>
<circle cx="25" cy="548" r="6" fill="#D9D9D9"/>
<circle cx="25" cy="222" r="6" fill="#D9D9D9"/>
<circle cx="25" cy="548" r="6" fill="#D9D9D9"/>
<circle cx="25" cy="222" r="6" fill="#D9D9D9"/>
<circle cx="25" cy="566" r="6" fill="#F2F2F2"/>
<circle cx="25" cy="240" r="6" fill="#F2F2F2"/>
<circle cx="25" cy="566" r="6" fill="#F2F2F2"/>
<circle cx="25" cy="240" r="6" fill="#F2F2F2"/>
<circle cx="25" cy="584" r="6" fill="#D9D9D9"/>
<circle cx="25" cy="258" r="6" fill="#D9D9D9"/>
<circle cx="25" cy="584" r="6" fill="#D9D9D9"/>
<circle cx="25" cy="258" r="6" fill="#D9D9D9"/>
<circle cx="25" cy="602" r="6" fill="#D9D9D9"/>
<circle cx="25" cy="276" r="6" fill="#D9D9D9"/>
<circle cx="25" cy="602" r="6" fill="#D9D9D9"/>
<circle cx="25" cy="276" r="6" fill="#D9D9D9"/>
<circle cx="25" cy="620" r="6" fill="#D9D9D9"/>
<circle cx="25" cy="294" r="6" fill="#D9D9D9"/>
<circle cx="25" cy="620" r="6" fill="#D9D9D9"/>
<circle cx="25" cy="294" r="6" fill="#D9D9D9"/>
<circle cx="25" cy="638" r="6" fill="#D9D9D9"/>
<circle cx="25" cy="312" r="6" fill="#D9D9D9"/>
<circle cx="25" cy="656" r="6" fill="#D9D9D9"/>
<circle cx="25" cy="674" r="6" fill="#D9D9D9"/>
<circle cx="25" cy="692" r="6" fill="#D9D9D9"/>
<circle cx="25" cy="710" r="6" fill="#D9D9D9"/>
<circle cx="44" cy="530" r="6" fill="#D9D9D9"/>
<circle cx="44" cy="204" r="6" fill="#D9D9D9"/>
<circle cx="44" cy="530" r="6" fill="#D9D9D9"/>
<circle cx="44" cy="204" r="6" fill="#D9D9D9"/>
<circle cx="44" cy="548" r="6" fill="#EAEAEA"/>
<circle cx="44" cy="222" r="6" fill="#EAEAEA"/>
<circle cx="44" cy="548" r="6" fill="#EAEAEA"/>
<circle cx="44" cy="222" r="6" fill="#EAEAEA"/>
<circle cx="44" cy="566" r="6" fill="#D9D9D9"/>
<circle cx="44" cy="240" r="6" fill="#D9D9D9"/>
<circle cx="44" cy="566" r="6" fill="#D9D9D9"/>
<circle cx="44" cy="240" r="6" fill="#D9D9D9"/>
<circle cx="44" cy="584" r="6" fill="#D9D9D9"/>
<circle cx="44" cy="258" r="6" fill="#D9D9D9"/>
<circle cx="44" cy="584" r="6" fill="#D9D9D9"/>
<circle cx="44" cy="258" r="6" fill="#D9D9D9"/>
<circle cx="44" cy="602" r="6" fill="#D9D9D9"/>
<circle cx="44" cy="276" r="6" fill="#D9D9D9"/>
<circle cx="44" cy="602" r="6" fill="#D9D9D9"/>
<circle cx="44" cy="276" r="6" fill="#D9D9D9"/>
<circle cx="44" cy="620" r="6" fill="#D9D9D9"/>
<circle cx="44" cy="294" r="6" fill="#D9D9D9"/>
<circle cx="44" cy="620" r="6" fill="#D9D9D9"/>
<circle cx="44" cy="294" r="6" fill="#D9D9D9"/>
<circle cx="44" cy="638" r="6" fill="#D9D9D9"/>
<circle cx="44" cy="312" r="6" fill="#D9D9D9"/>
<circle cx="44" cy="656" r="6" fill="#D9D9D9"/>
<circle cx="44" cy="674" r="6" fill="#D9D9D9"/>
<circle cx="44" cy="692" r="6" fill="#D9D9D9"/>
<circle cx="44" cy="710" r="6" fill="#D9D9D9"/>
<circle cx="63" cy="530" r="6" fill="#D9D9D9"/>
<circle cx="63" cy="204" r="6" fill="#D9D9D9"/>
<circle cx="63" cy="530" r="6" fill="#D9D9D9"/>
<circle cx="63" cy="204" r="6" fill="#D9D9D9"/>
<circle cx="63" cy="548" r="6" fill="#D9D9D9"/>
<circle cx="63" cy="222" r="6" fill="#D9D9D9"/>
<circle cx="63" cy="548" r="6" fill="#D9D9D9"/>
<circle cx="63" cy="222" r="6" fill="#D9D9D9"/>
<circle cx="63" cy="566" r="6" fill="#EDEDED"/>
<circle cx="63" cy="240" r="6" fill="#EDEDED"/>
<circle cx="63" cy="566" r="6" fill="#EDEDED"/>
<circle cx="63" cy="240" r="6" fill="#EDEDED"/>
<circle cx="63" cy="584" r="6" fill="#D9D9D9"/>
<circle cx="63" cy="258" r="6" fill="#D9D9D9"/>
<circle cx="63" cy="584" r="6" fill="#D9D9D9"/>
<circle cx="63" cy="258" r="6" fill="#D9D9D9"/>
<circle cx="63" cy="602" r="6" fill="#D9D9D9"/>
<circle cx="63" cy="276" r="6" fill="#D9D9D9"/>
<circle cx="63" cy="602" r="6" fill="#D9D9D9"/>
<circle cx="63" cy="276" r="6" fill="#D9D9D9"/>
<circle cx="63" cy="620" r="6" fill="#D9D9D9"/>
<circle cx="63" cy="294" r="6" fill="#D9D9D9"/>
<circle cx="63" cy="620" r="6" fill="#D9D9D9"/>
<circle cx="63" cy="294" r="6" fill="#D9D9D9"/>
<circle cx="63" cy="638" r="6" fill="#D9D9D9"/>
<circle cx="63" cy="312" r="6" fill="#D9D9D9"/>
<circle cx="63" cy="656" r="6" fill="#D9D9D9"/>
<circle cx="63" cy="674" r="6" fill="#D9D9D9"/>
<circle cx="63" cy="692" r="6" fill="#D9D9D9"/>
<circle cx="63" cy="710" r="6" fill="#D9D9D9"/>
<circle cx="82" cy="530" r="6" fill="#D9D9D9"/>
<circle cx="82" cy="204" r="6" fill="#D9D9D9"/>
<circle cx="82" cy="530" r="6" fill="#D9D9D9"/>
<circle cx="82" cy="204" r="6" fill="#D9D9D9"/>
<circle cx="82" cy="548" r="6" fill="#D9D9D9"/>
<circle cx="82" cy="222" r="6" fill="#D9D9D9"/>
<circle cx="82" cy="548" r="6" fill="#D9D9D9"/>
<circle cx="82" cy="222" r="6" fill="#D9D9D9"/>
<circle cx="82" cy="566" r="6" fill="#D9D9D9"/>
<circle cx="82" cy="240" r="6" fill="#D9D9D9"/>
<circle cx="82" cy="566" r="6" fill="#D9D9D9"/>
<circle cx="82" cy="240" r="6" fill="#D9D9D9"/>
<circle cx="82" cy="584" r="6" fill="#D9D9D9"/>
<circle cx="82" cy="258" r="6" fill="#D9D9D9"/>
<circle cx="82" cy="584" r="6" fill="#D9D9D9"/>
<circle cx="82" cy="258" r="6" fill="#D9D9D9"/>
<circle cx="82" cy="602" r="6" fill="#D9D9D9"/>
<circle cx="82" cy="276" r="6" fill="#D9D9D9"/>
<circle cx="82" cy="602" r="6" fill="#D9D9D9"/>
<circle cx="82" cy="276" r="6" fill="#D9D9D9"/>
<circle cx="82" cy="620" r="6" fill="#D9D9D9"/>
<circle cx="82" cy="294" r="6" fill="#D9D9D9"/>
<circle cx="82" cy="620" r="6" fill="#D9D9D9"/>
<circle cx="82" cy="294" r="6" fill="#D9D9D9"/>
<circle cx="82" cy="638" r="6" fill="#D9D9D9"/>
<circle cx="82" cy="312" r="6" fill="#D9D9D9"/>
<circle cx="82" cy="656" r="6" fill="#D9D9D9"/>
<circle cx="82" cy="674" r="6" fill="#D9D9D9"/>
<circle cx="82" cy="692" r="6" fill="#D9D9D9"/>
<circle cx="82" cy="710" r="6" fill="#D9D9D9"/>
<circle cx="101" cy="530" r="6" fill="#D9D9D9"/>
<circle cx="101" cy="204" r="6" fill="#D9D9D9"/>
<circle cx="101" cy="530" r="6" fill="#D9D9D9"/>
<circle cx="101" cy="204" r="6" fill="#D9D9D9"/>
<circle cx="101" cy="548" r="6" fill="#D9D9D9"/>
<circle cx="101" cy="222" r="6" fill="#D9D9D9"/>
<circle cx="101" cy="548" r="6" fill="#D9D9D9"/>
<circle cx="101" cy="222" r="6" fill="#D9D9D9"/>
<circle cx="101" cy="566" r="6" fill="#D9D9D9"/>
<circle cx="101" cy="240" r="6" fill="#D9D9D9"/>
<circle cx="101" cy="566" r="6" fill="#D9D9D9"/>
<circle cx="101" cy="240" r="6" fill="#D9D9D9"/>
<circle cx="101" cy="584" r="6" fill="#D9D9D9"/>
<circle cx="101" cy="258" r="6" fill="#D9D9D9"/>
<circle cx="101" cy="584" r="6" fill="#D9D9D9"/>
<circle cx="101" cy="258" r="6" fill="#D9D9D9"/>
<circle cx="101" cy="602" r="6" fill="#D9D9D9"/>
<circle cx="101" cy="276" r="6" fill="#D9D9D9"/>
<circle cx="101" cy="602" r="6" fill="#D9D9D9"/>
<circle cx="101" cy="276" r="6" fill="#D9D9D9"/>
<circle cx="101" cy="620" r="6" fill="#E8E8E8"/>
<circle cx="101" cy="294" r="6" fill="#E8E8E8"/>
<circle cx="101" cy="620" r="6" fill="#E8E8E8"/>
<circle cx="101" cy="294" r="6" fill="#E8E8E8"/>
<circle cx="101" cy="638" r="6" fill="#D9D9D9"/>
<circle cx="101" cy="312" r="6" fill="#D9D9D9"/>
<circle cx="101" cy="656" r="6" fill="#D9D9D9"/>
<circle cx="101" cy="674" r="6" fill="#D9D9D9"/>
<circle cx="101" cy="692" r="6" fill="#D9D9D9"/>
<circle cx="101" cy="710" r="6" fill="#D9D9D9"/>
<circle cx="120" cy="530" r="6" fill="#D9D9D9"/>
<circle cx="120" cy="204" r="6" fill="#D9D9D9"/>
<circle cx="120" cy="530" r="6" fill="#D9D9D9"/>
<circle cx="120" cy="204" r="6" fill="#D9D9D9"/>
<circle cx="120" cy="548" r="6" fill="#D9D9D9"/>
<circle cx="120" cy="222" r="6" fill="#D9D9D9"/>
<circle cx="120" cy="548" r="6" fill="#D9D9D9"/>
<circle cx="120" cy="222" r="6" fill="#D9D9D9"/>
<circle cx="120" cy="566" r="6" fill="#D9D9D9"/>
<circle cx="120" cy="240" r="6" fill="#D9D9D9"/>
<circle cx="120" cy="566" r="6" fill="#D9D9D9"/>
<circle cx="120" cy="240" r="6" fill="#D9D9D9"/>
<circle cx="120" cy="584" r="6" fill="#D9D9D9"/>
<circle cx="120" cy="258" r="6" fill="#D9D9D9"/>
<circle cx="120" cy="584" r="6" fill="#D9D9D9"/>
<circle cx="120" cy="258" r="6" fill="#D9D9D9"/>
<circle cx="120" cy="602" r="6" fill="#D9D9D9"/>
<circle cx="120" cy="276" r="6" fill="#D9D9D9"/>
<circle cx="120" cy="602" r="6" fill="#D9D9D9"/>
<circle cx="120" cy="276" r="6" fill="#D9D9D9"/>
<circle cx="120" cy="620" r="6" fill="#D9D9D9"/>
<circle cx="120" cy="294" r="6" fill="#D9D9D9"/>
<circle cx="120" cy="620" r="6" fill="#D9D9D9"/>
<circle cx="120" cy="294" r="6" fill="#D9D9D9"/>
<circle cx="120" cy="638" r="6" fill="#D9D9D9"/>
<circle cx="120" cy="312" r="6" fill="#D9D9D9"/>
<circle cx="120" cy="656" r="6" fill="#D9D9D9"/>
<circle cx="120" cy="674" r="6" fill="#D9D9D9"/>
<circle cx="120" cy="692" r="6" fill="#D9D9D9"/>
<circle cx="120" cy="710" r="6" fill="#D9D9D9"/>
<circle cx="139" cy="530" r="6" fill="#D9D9D9"/>
<circle cx="139" cy="204" r="6" fill="#D9D9D9"/>
<circle cx="139" cy="530" r="6" fill="#D9D9D9"/>
<circle cx="139" cy="204" r="6" fill="#D9D9D9"/>
<circle cx="139" cy="548" r="6" fill="#D9D9D9"/>
<circle cx="139" cy="222" r="6" fill="#D9D9D9"/>
<circle cx="139" cy="548" r="6" fill="#D9D9D9"/>
<circle cx="139" cy="222" r="6" fill="#D9D9D9"/>
<circle cx="139" cy="566" r="6" fill="#D9D9D9"/>
<circle cx="139" cy="240" r="6" fill="#D9D9D9"/>
<circle cx="139" cy="566" r="6" fill="#D9D9D9"/>
<circle cx="139" cy="240" r="6" fill="#D9D9D9"/>
<circle cx="139" cy="584" r="6" fill="#D9D9D9"/>
<circle cx="139" cy="258" r="6" fill="#D9D9D9"/>
<circle cx="139" cy="584" r="6" fill="#D9D9D9"/>
<circle cx="139" cy="258" r="6" fill="#D9D9D9"/>
<circle cx="139" cy="602" r="6" fill="#D9D9D9"/>
<circle cx="139" cy="276" r="6" fill="#D9D9D9"/>
<circle cx="139" cy="602" r="6" fill="#D9D9D9"/>
<circle cx="139" cy="276" r="6" fill="#D9D9D9"/>
<circle cx="139" cy="620" r="6" fill="#D9D9D9"/>
<circle cx="139" cy="294" r="6" fill="#D9D9D9"/>
<circle cx="139" cy="620" r="6" fill="#D9D9D9"/>
<circle cx="139" cy="294" r="6" fill="#D9D9D9"/>
<circle cx="139" cy="638" r="6" fill="#D9D9D9"/>
<circle cx="139" cy="312" r="6" fill="#D9D9D9"/>
<circle cx="139" cy="656" r="6" fill="#D9D9D9"/>
<circle cx="139" cy="674" r="6" fill="#D9D9D9"/>
<circle cx="139" cy="692" r="6" fill="#D9D9D9"/>
<circle cx="139" cy="710" r="6" fill="#D9D9D9"/>
<circle cx="158" cy="530" r="6" fill="#D9D9D9"/>
<circle cx="158" cy="204" r="6" fill="#D9D9D9"/>
<circle cx="158" cy="530" r="6" fill="#D9D9D9"/>
<circle cx="158" cy="204" r="6" fill="#D9D9D9"/>
<circle cx="158" cy="548" r="6" fill="#D9D9D9"/>
<circle cx="158" cy="222" r="6" fill="#D9D9D9"/>
<circle cx="158" cy="548" r="6" fill="#D9D9D9"/>
<circle cx="158" cy="222" r="6" fill="#D9D9D9"/>
<circle cx="158" cy="566" r="6" fill="#D9D9D9"/>
<circle cx="158" cy="240" r="6" fill="#D9D9D9"/>
<circle cx="158" cy="566" r="6" fill="#D9D9D9"/>
<circle cx="158" cy="240" r="6" fill="#D9D9D9"/>
<circle cx="158" cy="584" r="6" fill="#D9D9D9"/>
<circle cx="158" cy="258" r="6" fill="#D9D9D9"/>
<circle cx="158" cy="584" r="6" fill="#D9D9D9"/>
<circle cx="158" cy="258" r="6" fill="#D9D9D9"/>
<circle cx="158" cy="602" r="6" fill="#D9D9D9"/>
<circle cx="158" cy="276" r="6" fill="#D9D9D9"/>
<circle cx="158" cy="602" r="6" fill="#D9D9D9"/>
<circle cx="158" cy="276" r="6" fill="#D9D9D9"/>
<circle cx="158" cy="620" r="6" fill="#D9D9D9"/>
<circle cx="158" cy="294" r="6" fill="#D9D9D9"/>
<circle cx="158" cy="620" r="6" fill="#D9D9D9"/>
<circle cx="158" cy="294" r="6" fill="#D9D9D9"/>
<circle cx="158" cy="638" r="6" fill="#D9D9D9"/>
<circle cx="158" cy="312" r="6" fill="#D9D9D9"/>
<circle cx="158" cy="656" r="6" fill="#D9D9D9"/>
<circle cx="158" cy="674" r="6" fill="#D9D9D9"/>
<circle cx="158" cy="692" r="6" fill="#D9D9D9"/>
<circle cx="158" cy="710" r="6" fill="#D9D9D9"/>
<circle cx="177" cy="530" r="6" fill="#D9D9D9"/>
<circle cx="177" cy="204" r="6" fill="#D9D9D9"/>
<circle cx="177" cy="548" r="6" fill="#D9D9D9"/>
<circle cx="177" cy="222" r="6" fill="#D9D9D9"/>
<circle cx="177" cy="566" r="6" fill="#D9D9D9"/>
<circle cx="177" cy="240" r="6" fill="#D9D9D9"/>
<circle cx="177" cy="584" r="6" fill="#D9D9D9"/>
<circle cx="177" cy="258" r="6" fill="#D9D9D9"/>
<circle cx="177" cy="602" r="6" fill="#D9D9D9"/>
<circle cx="177" cy="276" r="6" fill="#D9D9D9"/>
<circle cx="177" cy="620" r="6" fill="#D9D9D9"/>
<circle cx="177" cy="294" r="6" fill="#D9D9D9"/>
<circle cx="177" cy="638" r="6" fill="#D9D9D9"/>
<circle cx="177" cy="312" r="6" fill="#D9D9D9"/>
<circle cx="177" cy="656" r="6" fill="#D9D9D9"/>
<circle cx="177" cy="674" r="6" fill="#D9D9D9"/>
<circle cx="177" cy="692" r="6" fill="#D9D9D9"/>
<circle cx="177" cy="710" r="6" fill="#D9D9D9"/>
<circle cx="6" cy="728" r="6" fill="#D9D9D9"/>
<circle cx="6" cy="746" r="6" fill="#D9D9D9"/>
<circle cx="6" cy="764" r="6" fill="#D9D9D9"/>
<circle cx="6" cy="782" r="6" fill="#D9D9D9"/>
<circle cx="6" cy="800" r="6" fill="#D9D9D9"/>
<circle cx="6" cy="818" r="6" fill="#D9D9D9"/>
<circle cx="6" cy="836" r="6" fill="#D9D9D9"/>
<circle cx="6" cy="854" r="6" fill="#D9D9D9"/>
<circle cx="6" cy="872" r="6" fill="#D9D9D9"/>
<circle cx="6" cy="890" r="6" fill="#D9D9D9"/>
<circle cx="6" cy="908" r="6" fill="#D9D9D9"/>
<circle cx="25" cy="728" r="6" fill="#D9D9D9"/>
<circle cx="25" cy="746" r="6" fill="#D9D9D9"/>
<circle cx="25" cy="764" r="6" fill="#F2F2F2"/>
<circle cx="25" cy="782" r="6" fill="#D9D9D9"/>
<circle cx="25" cy="800" r="6" fill="#D9D9D9"/>
<circle cx="25" cy="818" r="6" fill="#D9D9D9"/>
<circle cx="25" cy="836" r="6" fill="#D9D9D9"/>
<circle cx="25" cy="854" r="6" fill="#D9D9D9"/>
<circle cx="25" cy="872" r="6" fill="#D9D9D9"/>
<circle cx="25" cy="890" r="6" fill="#D9D9D9"/>
<circle cx="25" cy="908" r="6" fill="#D9D9D9"/>
<circle cx="44" cy="728" r="6" fill="#D9D9D9"/>
<circle cx="44" cy="746" r="6" fill="#EAEAEA"/>
<circle cx="44" cy="764" r="6" fill="#D9D9D9"/>
<circle cx="44" cy="782" r="6" fill="#D9D9D9"/>
<circle cx="44" cy="800" r="6" fill="#D9D9D9"/>
<circle cx="44" cy="818" r="6" fill="#D9D9D9"/>
<circle cx="44" cy="836" r="6" fill="#D9D9D9"/>
<circle cx="44" cy="854" r="6" fill="#D9D9D9"/>
<circle cx="44" cy="872" r="6" fill="#D9D9D9"/>
<circle cx="44" cy="890" r="6" fill="#D9D9D9"/>
<circle cx="44" cy="908" r="6" fill="#D9D9D9"/>
<circle cx="63" cy="728" r="6" fill="#D9D9D9"/>
<circle cx="63" cy="746" r="6" fill="#D9D9D9"/>
<circle cx="63" cy="764" r="6" fill="#EDEDED"/>
<circle cx="63" cy="782" r="6" fill="#D9D9D9"/>
<circle cx="63" cy="800" r="6" fill="#D9D9D9"/>
<circle cx="63" cy="818" r="6" fill="#D9D9D9"/>
<circle cx="63" cy="836" r="6" fill="#D9D9D9"/>
<circle cx="63" cy="854" r="6" fill="#D9D9D9"/>
<circle cx="63" cy="872" r="6" fill="#D9D9D9"/>
<circle cx="63" cy="890" r="6" fill="#D9D9D9"/>
<circle cx="63" cy="908" r="6" fill="#D9D9D9"/>
<circle cx="82" cy="728" r="6" fill="#D9D9D9"/>
<circle cx="82" cy="746" r="6" fill="#D9D9D9"/>
<circle cx="82" cy="764" r="6" fill="#D9D9D9"/>
<circle cx="82" cy="782" r="6" fill="#D9D9D9"/>
<circle cx="82" cy="800" r="6" fill="#D9D9D9"/>
<circle cx="82" cy="818" r="6" fill="#D9D9D9"/>
<circle cx="82" cy="836" r="6" fill="#D9D9D9"/>
<circle cx="82" cy="854" r="6" fill="#D9D9D9"/>
<circle cx="82" cy="872" r="6" fill="#D9D9D9"/>
<circle cx="82" cy="890" r="6" fill="#D9D9D9"/>
<circle cx="82" cy="908" r="6" fill="#D9D9D9"/>
<circle cx="101" cy="728" r="6" fill="#D9D9D9"/>
<circle cx="101" cy="746" r="6" fill="#D9D9D9"/>
<circle cx="101" cy="764" r="6" fill="#D9D9D9"/>
<circle cx="101" cy="782" r="6" fill="#D9D9D9"/>
<circle cx="101" cy="800" r="6" fill="#D9D9D9"/>
<circle cx="101" cy="818" r="6" fill="#E8E8E8"/>
<circle cx="101" cy="836" r="6" fill="#D9D9D9"/>
<circle cx="101" cy="854" r="6" fill="#D9D9D9"/>
<circle cx="101" cy="872" r="6" fill="#D9D9D9"/>
<circle cx="101" cy="890" r="6" fill="#D9D9D9"/>
<circle cx="101" cy="908" r="6" fill="#D9D9D9"/>
<circle cx="120" cy="728" r="6" fill="#D9D9D9"/>
<circle cx="120" cy="746" r="6" fill="#D9D9D9"/>
<circle cx="120" cy="764" r="6" fill="#D9D9D9"/>
<circle cx="120" cy="782" r="6" fill="#D9D9D9"/>
<circle cx="120" cy="800" r="6" fill="#D9D9D9"/>
<circle cx="120" cy="818" r="6" fill="#D9D9D9"/>
<circle cx="120" cy="836" r="6" fill="#D9D9D9"/>
<circle cx="120" cy="854" r="6" fill="#D9D9D9"/>
<circle cx="120" cy="872" r="6" fill="#D9D9D9"/>
<circle cx="120" cy="890" r="6" fill="#D9D9D9"/>
<circle cx="120" cy="908" r="6" fill="#D9D9D9"/>
<circle cx="139" cy="728" r="6" fill="#D9D9D9"/>
<circle cx="139" cy="746" r="6" fill="#D9D9D9"/>
<circle cx="139" cy="764" r="6" fill="#D9D9D9"/>
<circle cx="139" cy="782" r="6" fill="#D9D9D9"/>
<circle cx="139" cy="800" r="6" fill="#D9D9D9"/>
<circle cx="139" cy="818" r="6" fill="#D9D9D9"/>
<circle cx="139" cy="836" r="6" fill="#D9D9D9"/>
<circle cx="139" cy="854" r="6" fill="#D9D9D9"/>
<circle cx="139" cy="872" r="6" fill="#D9D9D9"/>
<circle cx="139" cy="890" r="6" fill="#D9D9D9"/>
<circle cx="139" cy="908" r="6" fill="#D9D9D9"/>
<circle cx="158" cy="728" r="6" fill="#D9D9D9"/>
<circle cx="158" cy="746" r="6" fill="#D9D9D9"/>
<circle cx="158" cy="764" r="6" fill="#D9D9D9"/>
<circle cx="158" cy="782" r="6" fill="#D9D9D9"/>
<circle cx="158" cy="800" r="6" fill="#D9D9D9"/>
<circle cx="158" cy="818" r="6" fill="#D9D9D9"/>
<circle cx="158" cy="836" r="6" fill="#D9D9D9"/>
<circle cx="158" cy="854" r="6" fill="#D9D9D9"/>
<circle cx="158" cy="872" r="6" fill="#D9D9D9"/>
<circle cx="158" cy="890" r="6" fill="#D9D9D9"/>
<circle cx="158" cy="908" r="6" fill="#D9D9D9"/>
<circle cx="177" cy="728" r="6" fill="#D9D9D9"/>
<circle cx="177" cy="746" r="6" fill="#D9D9D9"/>
<circle cx="177" cy="764" r="6" fill="#D9D9D9"/>
<circle cx="177" cy="782" r="6" fill="#D9D9D9"/>
<circle cx="177" cy="800" r="6" fill="#D9D9D9"/>
<circle cx="177" cy="818" r="6" fill="#D9D9D9"/>
<circle cx="177" cy="836" r="6" fill="#D9D9D9"/>
<circle cx="177" cy="854" r="6" fill="#D9D9D9"/>
<circle cx="177" cy="872" r="6" fill="#D9D9D9"/>
<circle cx="177" cy="890" r="6" fill="#D9D9D9"/>
<circle cx="177" cy="908" r="6" fill="#D9D9D9"/>
<circle cx="6" cy="332" r="6" fill="#D9D9D9"/>
<circle cx="6" cy="6" r="6" fill="#D9D9D9"/>
<circle cx="6" cy="332" r="6" fill="#D9D9D9"/>
<circle cx="6" cy="6" r="6" fill="#D9D9D9"/>
<circle cx="6" cy="350" r="6" fill="#D9D9D9"/>
<circle cx="6" cy="24" r="6" fill="#D9D9D9"/>
<circle cx="6" cy="350" r="6" fill="#D9D9D9"/>
<circle cx="6" cy="24" r="6" fill="#D9D9D9"/>
<circle cx="6" cy="368" r="6" fill="#D9D9D9"/>
<circle cx="6" cy="42" r="6" fill="#D9D9D9"/>
<circle cx="6" cy="368" r="6" fill="#D9D9D9"/>
<circle cx="6" cy="42" r="6" fill="#D9D9D9"/>
<circle cx="6" cy="386" r="6" fill="#D9D9D9"/>
<circle cx="6" cy="60" r="6" fill="#D9D9D9"/>
<circle cx="6" cy="386" r="6" fill="#D9D9D9"/>
<circle cx="6" cy="60" r="6" fill="#D9D9D9"/>
<circle cx="6" cy="404" r="6" fill="#D9D9D9"/>
<circle cx="6" cy="78" r="6" fill="#D9D9D9"/>
<circle cx="6" cy="404" r="6" fill="#D9D9D9"/>
<circle cx="6" cy="78" r="6" fill="#D9D9D9"/>
<circle cx="6" cy="422" r="6" fill="#D9D9D9"/>
<circle cx="6" cy="96" r="6" fill="#D9D9D9"/>
<circle cx="6" cy="422" r="6" fill="#D9D9D9"/>
<circle cx="6" cy="96" r="6" fill="#D9D9D9"/>
<circle cx="6" cy="440" r="6" fill="#D9D9D9"/>
<circle cx="6" cy="114" r="6" fill="#D9D9D9"/>
<circle cx="6" cy="440" r="6" fill="#D9D9D9"/>
<circle cx="6" cy="114" r="6" fill="#D9D9D9"/>
<circle cx="6" cy="458" r="6" fill="#D9D9D9"/>
<circle cx="6" cy="132" r="6" fill="#D9D9D9"/>
<circle cx="6" cy="458" r="6" fill="#D9D9D9"/>
<circle cx="6" cy="132" r="6" fill="#D9D9D9"/>
<circle cx="6" cy="476" r="6" fill="#D9D9D9"/>
<circle cx="6" cy="150" r="6" fill="#D9D9D9"/>
<circle cx="6" cy="476" r="6" fill="#D9D9D9"/>
<circle cx="6" cy="150" r="6" fill="#D9D9D9"/>
<circle cx="6" cy="494" r="6" fill="#D9D9D9"/>
<circle cx="6" cy="168" r="6" fill="#D9D9D9"/>
<circle cx="6" cy="494" r="6" fill="#D9D9D9"/>
<circle cx="6" cy="168" r="6" fill="#D9D9D9"/>
<circle cx="6" cy="512" r="6" fill="#D9D9D9"/>
<circle cx="6" cy="186" r="6" fill="#D9D9D9"/>
<circle cx="6" cy="512" r="6" fill="#D9D9D9"/>
<circle cx="6" cy="186" r="6" fill="#D9D9D9"/>
<circle cx="25" cy="332" r="6" fill="#D9D9D9"/>
<circle cx="25" cy="6" r="6" fill="#D9D9D9"/>
<circle cx="25" cy="332" r="6" fill="#D9D9D9"/>
<circle cx="25" cy="6" r="6" fill="#D9D9D9"/>
<circle cx="25" cy="350" r="6" fill="#D9D9D9"/>
<circle cx="25" cy="24" r="6" fill="#D9D9D9"/>
<circle cx="25" cy="350" r="6" fill="#D9D9D9"/>
<circle cx="25" cy="24" r="6" fill="#D9D9D9"/>
<circle cx="25" cy="368" r="6" fill="#F2F2F2"/>
<circle cx="25" cy="42" r="6" fill="#F2F2F2"/>
<circle cx="25" cy="368" r="6" fill="#F2F2F2"/>
<circle cx="25" cy="42" r="6" fill="#F2F2F2"/>
<circle cx="25" cy="386" r="6" fill="#D9D9D9"/>
<circle cx="25" cy="60" r="6" fill="#D9D9D9"/>
<circle cx="25" cy="386" r="6" fill="#D9D9D9"/>
<circle cx="25" cy="60" r="6" fill="#D9D9D9"/>
<circle cx="25" cy="404" r="6" fill="#D9D9D9"/>
<circle cx="25" cy="78" r="6" fill="#D9D9D9"/>
<circle cx="25" cy="404" r="6" fill="#D9D9D9"/>
<circle cx="25" cy="78" r="6" fill="#D9D9D9"/>
<circle cx="25" cy="422" r="6" fill="#D9D9D9"/>
<circle cx="25" cy="96" r="6" fill="#D9D9D9"/>
<circle cx="25" cy="422" r="6" fill="#D9D9D9"/>
<circle cx="25" cy="96" r="6" fill="#D9D9D9"/>
<circle cx="25" cy="440" r="6" fill="#D9D9D9"/>
<circle cx="25" cy="114" r="6" fill="#D9D9D9"/>
<circle cx="25" cy="440" r="6" fill="#D9D9D9"/>
<circle cx="25" cy="114" r="6" fill="#D9D9D9"/>
<circle cx="25" cy="458" r="6" fill="#D9D9D9"/>
<circle cx="25" cy="132" r="6" fill="#D9D9D9"/>
<circle cx="25" cy="458" r="6" fill="#D9D9D9"/>
<circle cx="25" cy="132" r="6" fill="#D9D9D9"/>
<circle cx="25" cy="476" r="6" fill="#D9D9D9"/>
<circle cx="25" cy="150" r="6" fill="#D9D9D9"/>
<circle cx="25" cy="476" r="6" fill="#D9D9D9"/>
<circle cx="25" cy="150" r="6" fill="#D9D9D9"/>
<circle cx="25" cy="494" r="6" fill="#D9D9D9"/>
<circle cx="25" cy="168" r="6" fill="#D9D9D9"/>
<circle cx="25" cy="494" r="6" fill="#D9D9D9"/>
<circle cx="25" cy="168" r="6" fill="#D9D9D9"/>
<circle cx="25" cy="512" r="6" fill="#D9D9D9"/>
<circle cx="25" cy="186" r="6" fill="#D9D9D9"/>
<circle cx="25" cy="512" r="6" fill="#D9D9D9"/>
<circle cx="25" cy="186" r="6" fill="#D9D9D9"/>
<circle cx="44" cy="332" r="6" fill="#D9D9D9"/>
<circle cx="44" cy="6" r="6" fill="#D9D9D9"/>
<circle cx="44" cy="332" r="6" fill="#D9D9D9"/>
<circle cx="44" cy="6" r="6" fill="#D9D9D9"/>
<circle cx="44" cy="350" r="6" fill="#EAEAEA"/>
<circle cx="44" cy="24" r="6" fill="#EAEAEA"/>
<circle cx="44" cy="350" r="6" fill="#EAEAEA"/>
<circle cx="44" cy="24" r="6" fill="#EAEAEA"/>
<circle cx="44" cy="368" r="6" fill="#D9D9D9"/>
<circle cx="44" cy="42" r="6" fill="#D9D9D9"/>
<circle cx="44" cy="368" r="6" fill="#D9D9D9"/>
<circle cx="44" cy="42" r="6" fill="#D9D9D9"/>
<circle cx="44" cy="386" r="6" fill="#D9D9D9"/>
<circle cx="44" cy="60" r="6" fill="#D9D9D9"/>
<circle cx="44" cy="386" r="6" fill="#D9D9D9"/>
<circle cx="44" cy="60" r="6" fill="#D9D9D9"/>
<circle cx="44" cy="404" r="6" fill="#D9D9D9"/>
<circle cx="44" cy="78" r="6" fill="#D9D9D9"/>
<circle cx="44" cy="404" r="6" fill="#D9D9D9"/>
<circle cx="44" cy="78" r="6" fill="#D9D9D9"/>
<circle cx="44" cy="422" r="6" fill="#D9D9D9"/>
<circle cx="44" cy="96" r="6" fill="#D9D9D9"/>
<circle cx="44" cy="422" r="6" fill="#D9D9D9"/>
<circle cx="44" cy="96" r="6" fill="#D9D9D9"/>
<circle cx="44" cy="440" r="6" fill="#D9D9D9"/>
<circle cx="44" cy="114" r="6" fill="#D9D9D9"/>
<circle cx="44" cy="440" r="6" fill="#D9D9D9"/>
<circle cx="44" cy="114" r="6" fill="#D9D9D9"/>
<circle cx="44" cy="458" r="6" fill="#D9D9D9"/>
<circle cx="44" cy="132" r="6" fill="#D9D9D9"/>
<circle cx="44" cy="458" r="6" fill="#D9D9D9"/>
<circle cx="44" cy="132" r="6" fill="#D9D9D9"/>
<circle cx="44" cy="476" r="6" fill="#D9D9D9"/>
<circle cx="44" cy="150" r="6" fill="#D9D9D9"/>
<circle cx="44" cy="476" r="6" fill="#D9D9D9"/>
<circle cx="44" cy="150" r="6" fill="#D9D9D9"/>
<circle cx="44" cy="494" r="6" fill="#D9D9D9"/>
<circle cx="44" cy="168" r="6" fill="#D9D9D9"/>
<circle cx="44" cy="494" r="6" fill="#D9D9D9"/>
<circle cx="44" cy="168" r="6" fill="#D9D9D9"/>
<circle cx="44" cy="512" r="6" fill="#D9D9D9"/>
<circle cx="44" cy="186" r="6" fill="#D9D9D9"/>
<circle cx="44" cy="512" r="6" fill="#D9D9D9"/>
<circle cx="44" cy="186" r="6" fill="#D9D9D9"/>
<circle cx="63" cy="332" r="6" fill="#D9D9D9"/>
<circle cx="63" cy="6" r="6" fill="#D9D9D9"/>
<circle cx="63" cy="332" r="6" fill="#D9D9D9"/>
<circle cx="63" cy="6" r="6" fill="#D9D9D9"/>
<circle cx="63" cy="350" r="6" fill="#D9D9D9"/>
<circle cx="63" cy="24" r="6" fill="#D9D9D9"/>
<circle cx="63" cy="350" r="6" fill="#D9D9D9"/>
<circle cx="63" cy="24" r="6" fill="#D9D9D9"/>
<circle cx="63" cy="368" r="6" fill="#EDEDED"/>
<circle cx="63" cy="42" r="6" fill="#EDEDED"/>
<circle cx="63" cy="368" r="6" fill="#EDEDED"/>
<circle cx="63" cy="42" r="6" fill="#EDEDED"/>
<circle cx="63" cy="386" r="6" fill="#D9D9D9"/>
<circle cx="63" cy="60" r="6" fill="#D9D9D9"/>
<circle cx="63" cy="386" r="6" fill="#D9D9D9"/>
<circle cx="63" cy="60" r="6" fill="#D9D9D9"/>
<circle cx="63" cy="404" r="6" fill="#D9D9D9"/>
<circle cx="63" cy="78" r="6" fill="#D9D9D9"/>
<circle cx="63" cy="404" r="6" fill="#D9D9D9"/>
<circle cx="63" cy="78" r="6" fill="#D9D9D9"/>
<circle cx="63" cy="422" r="6" fill="#D9D9D9"/>
<circle cx="63" cy="96" r="6" fill="#D9D9D9"/>
<circle cx="63" cy="422" r="6" fill="#D9D9D9"/>
<circle cx="63" cy="96" r="6" fill="#D9D9D9"/>
<circle cx="63" cy="440" r="6" fill="#D9D9D9"/>
<circle cx="63" cy="114" r="6" fill="#D9D9D9"/>
<circle cx="63" cy="440" r="6" fill="#D9D9D9"/>
<circle cx="63" cy="114" r="6" fill="#D9D9D9"/>
<circle cx="63" cy="458" r="6" fill="#D9D9D9"/>
<circle cx="63" cy="132" r="6" fill="#D9D9D9"/>
<circle cx="63" cy="458" r="6" fill="#D9D9D9"/>
<circle cx="63" cy="132" r="6" fill="#D9D9D9"/>
<circle cx="63" cy="476" r="6" fill="#D9D9D9"/>
<circle cx="63" cy="150" r="6" fill="#D9D9D9"/>
<circle cx="63" cy="476" r="6" fill="#D9D9D9"/>
<circle cx="63" cy="150" r="6" fill="#D9D9D9"/>
<circle cx="63" cy="494" r="6" fill="#D9D9D9"/>
<circle cx="63" cy="168" r="6" fill="#D9D9D9"/>
<circle cx="63" cy="494" r="6" fill="#D9D9D9"/>
<circle cx="63" cy="168" r="6" fill="#D9D9D9"/>
<circle cx="63" cy="512" r="6" fill="#D9D9D9"/>
<circle cx="63" cy="186" r="6" fill="#D9D9D9"/>
<circle cx="63" cy="512" r="6" fill="#D9D9D9"/>
<circle cx="63" cy="186" r="6" fill="#D9D9D9"/>
<circle cx="82" cy="332" r="6" fill="#D9D9D9"/>
<circle cx="82" cy="6" r="6" fill="#D9D9D9"/>
<circle cx="82" cy="332" r="6" fill="#D9D9D9"/>
<circle cx="82" cy="6" r="6" fill="#D9D9D9"/>
<circle cx="82" cy="350" r="6" fill="#D9D9D9"/>
<circle cx="82" cy="24" r="6" fill="#D9D9D9"/>
<circle cx="82" cy="350" r="6" fill="#D9D9D9"/>
<circle cx="82" cy="24" r="6" fill="#D9D9D9"/>
<circle cx="82" cy="368" r="6" fill="#D9D9D9"/>
<circle cx="82" cy="42" r="6" fill="#D9D9D9"/>
<circle cx="82" cy="368" r="6" fill="#D9D9D9"/>
<circle cx="82" cy="42" r="6" fill="#D9D9D9"/>
<circle cx="82" cy="386" r="6" fill="#D9D9D9"/>
<circle cx="82" cy="60" r="6" fill="#D9D9D9"/>
<circle cx="82" cy="386" r="6" fill="#D9D9D9"/>
<circle cx="82" cy="60" r="6" fill="#D9D9D9"/>
<circle cx="82" cy="404" r="6" fill="#D9D9D9"/>
<circle cx="82" cy="78" r="6" fill="#D9D9D9"/>
<circle cx="82" cy="404" r="6" fill="#D9D9D9"/>
<circle cx="82" cy="78" r="6" fill="#D9D9D9"/>
<circle cx="82" cy="422" r="6" fill="#D9D9D9"/>
<circle cx="82" cy="96" r="6" fill="#D9D9D9"/>
<circle cx="82" cy="422" r="6" fill="#D9D9D9"/>
<circle cx="82" cy="96" r="6" fill="#D9D9D9"/>
<circle cx="82" cy="440" r="6" fill="#D9D9D9"/>
<circle cx="82" cy="114" r="6" fill="#D9D9D9"/>
<circle cx="82" cy="440" r="6" fill="#D9D9D9"/>
<circle cx="82" cy="114" r="6" fill="#D9D9D9"/>
<circle cx="82" cy="458" r="6" fill="#D9D9D9"/>
<circle cx="82" cy="132" r="6" fill="#D9D9D9"/>
<circle cx="82" cy="458" r="6" fill="#D9D9D9"/>
<circle cx="82" cy="132" r="6" fill="#D9D9D9"/>
<circle cx="82" cy="476" r="6" fill="#D9D9D9"/>
<circle cx="82" cy="150" r="6" fill="#D9D9D9"/>
<circle cx="82" cy="476" r="6" fill="#D9D9D9"/>
<circle cx="82" cy="150" r="6" fill="#D9D9D9"/>
<circle cx="82" cy="494" r="6" fill="#D9D9D9"/>
<circle cx="82" cy="168" r="6" fill="#D9D9D9"/>
<circle cx="82" cy="494" r="6" fill="#D9D9D9"/>
<circle cx="82" cy="168" r="6" fill="#D9D9D9"/>
<circle cx="82" cy="512" r="6" fill="#D9D9D9"/>
<circle cx="82" cy="186" r="6" fill="#D9D9D9"/>
<circle cx="82" cy="512" r="6" fill="#D9D9D9"/>
<circle cx="82" cy="186" r="6" fill="#D9D9D9"/>
<circle cx="101" cy="332" r="6" fill="#D9D9D9"/>
<circle cx="101" cy="6" r="6" fill="#D9D9D9"/>
<circle cx="101" cy="332" r="6" fill="#D9D9D9"/>
<circle cx="101" cy="6" r="6" fill="#D9D9D9"/>
<circle cx="101" cy="350" r="6" fill="#D9D9D9"/>
<circle cx="101" cy="24" r="6" fill="#D9D9D9"/>
<circle cx="101" cy="350" r="6" fill="#D9D9D9"/>
<circle cx="101" cy="24" r="6" fill="#D9D9D9"/>
<circle cx="101" cy="368" r="6" fill="#D9D9D9"/>
<circle cx="101" cy="42" r="6" fill="#D9D9D9"/>
<circle cx="101" cy="368" r="6" fill="#D9D9D9"/>
<circle cx="101" cy="42" r="6" fill="#D9D9D9"/>
<circle cx="101" cy="386" r="6" fill="#D9D9D9"/>
<circle cx="101" cy="60" r="6" fill="#D9D9D9"/>
<circle cx="101" cy="386" r="6" fill="#D9D9D9"/>
<circle cx="101" cy="60" r="6" fill="#D9D9D9"/>
<circle cx="101" cy="404" r="6" fill="#D9D9D9"/>
<circle cx="101" cy="78" r="6" fill="#D9D9D9"/>
<circle cx="101" cy="404" r="6" fill="#D9D9D9"/>
<circle cx="101" cy="78" r="6" fill="#D9D9D9"/>
<circle cx="101" cy="422" r="6" fill="#E8E8E8"/>
<circle cx="101" cy="96" r="6" fill="#E8E8E8"/>
<circle cx="101" cy="422" r="6" fill="#E8E8E8"/>
<circle cx="101" cy="96" r="6" fill="#E8E8E8"/>
<circle cx="101" cy="440" r="6" fill="#D9D9D9"/>
<circle cx="101" cy="114" r="6" fill="#D9D9D9"/>
<circle cx="101" cy="440" r="6" fill="#D9D9D9"/>
<circle cx="101" cy="114" r="6" fill="#D9D9D9"/>
<circle cx="101" cy="458" r="6" fill="#D9D9D9"/>
<circle cx="101" cy="132" r="6" fill="#D9D9D9"/>
<circle cx="101" cy="458" r="6" fill="#D9D9D9"/>
<circle cx="101" cy="132" r="6" fill="#D9D9D9"/>
<circle cx="101" cy="476" r="6" fill="#D9D9D9"/>
<circle cx="101" cy="150" r="6" fill="#D9D9D9"/>
<circle cx="101" cy="476" r="6" fill="#D9D9D9"/>
<circle cx="101" cy="150" r="6" fill="#D9D9D9"/>
<circle cx="101" cy="494" r="6" fill="#D9D9D9"/>
<circle cx="101" cy="168" r="6" fill="#D9D9D9"/>
<circle cx="101" cy="494" r="6" fill="#D9D9D9"/>
<circle cx="101" cy="168" r="6" fill="#D9D9D9"/>
<circle cx="101" cy="512" r="6" fill="#D9D9D9"/>
<circle cx="101" cy="186" r="6" fill="#D9D9D9"/>
<circle cx="101" cy="512" r="6" fill="#D9D9D9"/>
<circle cx="101" cy="186" r="6" fill="#D9D9D9"/>
<circle cx="120" cy="332" r="6" fill="#D9D9D9"/>
<circle cx="120" cy="6" r="6" fill="#D9D9D9"/>
<circle cx="120" cy="332" r="6" fill="#D9D9D9"/>
<circle cx="120" cy="6" r="6" fill="#D9D9D9"/>
<circle cx="120" cy="350" r="6" fill="#D9D9D9"/>
<circle cx="120" cy="24" r="6" fill="#D9D9D9"/>
<circle cx="120" cy="350" r="6" fill="#D9D9D9"/>
<circle cx="120" cy="24" r="6" fill="#D9D9D9"/>
<circle cx="120" cy="368" r="6" fill="#D9D9D9"/>
<circle cx="120" cy="42" r="6" fill="#D9D9D9"/>
<circle cx="120" cy="368" r="6" fill="#D9D9D9"/>
<circle cx="120" cy="42" r="6" fill="#D9D9D9"/>
<circle cx="120" cy="386" r="6" fill="#D9D9D9"/>
<circle cx="120" cy="60" r="6" fill="#D9D9D9"/>
<circle cx="120" cy="386" r="6" fill="#D9D9D9"/>
<circle cx="120" cy="60" r="6" fill="#D9D9D9"/>
<circle cx="120" cy="404" r="6" fill="#D9D9D9"/>
<circle cx="120" cy="78" r="6" fill="#D9D9D9"/>
<circle cx="120" cy="404" r="6" fill="#D9D9D9"/>
<circle cx="120" cy="78" r="6" fill="#D9D9D9"/>
<circle cx="120" cy="422" r="6" fill="#D9D9D9"/>
<circle cx="120" cy="96" r="6" fill="#D9D9D9"/>
<circle cx="120" cy="422" r="6" fill="#D9D9D9"/>
<circle cx="120" cy="96" r="6" fill="#D9D9D9"/>
<circle cx="120" cy="440" r="6" fill="#D9D9D9"/>
<circle cx="120" cy="114" r="6" fill="#D9D9D9"/>
<circle cx="120" cy="440" r="6" fill="#D9D9D9"/>
<circle cx="120" cy="114" r="6" fill="#D9D9D9"/>
<circle cx="120" cy="458" r="6" fill="#D9D9D9"/>
<circle cx="120" cy="132" r="6" fill="#D9D9D9"/>
<circle cx="120" cy="458" r="6" fill="#D9D9D9"/>
<circle cx="120" cy="132" r="6" fill="#D9D9D9"/>
<circle cx="120" cy="476" r="6" fill="#D9D9D9"/>
<circle cx="120" cy="150" r="6" fill="#D9D9D9"/>
<circle cx="120" cy="476" r="6" fill="#D9D9D9"/>
<circle cx="120" cy="150" r="6" fill="#D9D9D9"/>
<circle cx="120" cy="494" r="6" fill="#D9D9D9"/>
<circle cx="120" cy="168" r="6" fill="#D9D9D9"/>
<circle cx="120" cy="494" r="6" fill="#D9D9D9"/>
<circle cx="120" cy="168" r="6" fill="#D9D9D9"/>
<circle cx="120" cy="512" r="6" fill="#D9D9D9"/>
<circle cx="120" cy="186" r="6" fill="#D9D9D9"/>
<circle cx="120" cy="512" r="6" fill="#D9D9D9"/>
<circle cx="120" cy="186" r="6" fill="#D9D9D9"/>
<circle cx="139" cy="332" r="6" fill="#D9D9D9"/>
<circle cx="139" cy="6" r="6" fill="#D9D9D9"/>
<circle cx="139" cy="332" r="6" fill="#D9D9D9"/>
<circle cx="139" cy="6" r="6" fill="#D9D9D9"/>
<circle cx="139" cy="350" r="6" fill="#D9D9D9"/>
<circle cx="139" cy="24" r="6" fill="#D9D9D9"/>
<circle cx="139" cy="350" r="6" fill="#D9D9D9"/>
<circle cx="139" cy="24" r="6" fill="#D9D9D9"/>
<circle cx="139" cy="368" r="6" fill="#D9D9D9"/>
<circle cx="139" cy="42" r="6" fill="#D9D9D9"/>
<circle cx="139" cy="368" r="6" fill="#D9D9D9"/>
<circle cx="139" cy="42" r="6" fill="#D9D9D9"/>
<circle cx="139" cy="386" r="6" fill="#D9D9D9"/>
<circle cx="139" cy="60" r="6" fill="#D9D9D9"/>
<circle cx="139" cy="386" r="6" fill="#D9D9D9"/>
<circle cx="139" cy="60" r="6" fill="#D9D9D9"/>
<circle cx="139" cy="404" r="6" fill="#D9D9D9"/>
<circle cx="139" cy="78" r="6" fill="#D9D9D9"/>
<circle cx="139" cy="404" r="6" fill="#D9D9D9"/>
<circle cx="139" cy="78" r="6" fill="#D9D9D9"/>
<circle cx="139" cy="422" r="6" fill="#D9D9D9"/>
<circle cx="139" cy="96" r="6" fill="#D9D9D9"/>
<circle cx="139" cy="422" r="6" fill="#D9D9D9"/>
<circle cx="139" cy="96" r="6" fill="#D9D9D9"/>
<circle cx="139" cy="440" r="6" fill="#D9D9D9"/>
<circle cx="139" cy="114" r="6" fill="#D9D9D9"/>
<circle cx="139" cy="440" r="6" fill="#D9D9D9"/>
<circle cx="139" cy="114" r="6" fill="#D9D9D9"/>
<circle cx="139" cy="458" r="6" fill="#D9D9D9"/>
<circle cx="139" cy="132" r="6" fill="#D9D9D9"/>
<circle cx="139" cy="458" r="6" fill="#D9D9D9"/>
<circle cx="139" cy="132" r="6" fill="#D9D9D9"/>
<circle cx="139" cy="476" r="6" fill="#D9D9D9"/>
<circle cx="139" cy="150" r="6" fill="#D9D9D9"/>
<circle cx="139" cy="476" r="6" fill="#D9D9D9"/>
<circle cx="139" cy="150" r="6" fill="#D9D9D9"/>
<circle cx="139" cy="494" r="6" fill="#D9D9D9"/>
<circle cx="139" cy="168" r="6" fill="#D9D9D9"/>
<circle cx="139" cy="494" r="6" fill="#D9D9D9"/>
<circle cx="139" cy="168" r="6" fill="#D9D9D9"/>
<circle cx="139" cy="512" r="6" fill="#D9D9D9"/>
<circle cx="139" cy="186" r="6" fill="#D9D9D9"/>
<circle cx="139" cy="512" r="6" fill="#D9D9D9"/>
<circle cx="139" cy="186" r="6" fill="#D9D9D9"/>
<circle cx="158" cy="332" r="6" fill="#D9D9D9"/>
<circle cx="158" cy="6" r="6" fill="#D9D9D9"/>
<circle cx="158" cy="332" r="6" fill="#D9D9D9"/>
<circle cx="158" cy="6" r="6" fill="#D9D9D9"/>
<circle cx="158" cy="350" r="6" fill="#D9D9D9"/>
<circle cx="158" cy="24" r="6" fill="#D9D9D9"/>
<circle cx="158" cy="350" r="6" fill="#D9D9D9"/>
<circle cx="158" cy="24" r="6" fill="#D9D9D9"/>
<circle cx="158" cy="368" r="6" fill="#D9D9D9"/>
<circle cx="158" cy="42" r="6" fill="#D9D9D9"/>
<circle cx="158" cy="368" r="6" fill="#D9D9D9"/>
<circle cx="158" cy="42" r="6" fill="#D9D9D9"/>
<circle cx="158" cy="386" r="6" fill="#D9D9D9"/>
<circle cx="158" cy="60" r="6" fill="#D9D9D9"/>
<circle cx="158" cy="386" r="6" fill="#D9D9D9"/>
<circle cx="158" cy="60" r="6" fill="#D9D9D9"/>
<circle cx="158" cy="404" r="6" fill="#D9D9D9"/>
<circle cx="158" cy="78" r="6" fill="#D9D9D9"/>
<circle cx="158" cy="404" r="6" fill="#D9D9D9"/>
<circle cx="158" cy="78" r="6" fill="#D9D9D9"/>
<circle cx="158" cy="422" r="6" fill="#D9D9D9"/>
<circle cx="158" cy="96" r="6" fill="#D9D9D9"/>
<circle cx="158" cy="422" r="6" fill="#D9D9D9"/>
<circle cx="158" cy="96" r="6" fill="#D9D9D9"/>
<circle cx="158" cy="440" r="6" fill="#D9D9D9"/>
<circle cx="158" cy="114" r="6" fill="#D9D9D9"/>
<circle cx="158" cy="440" r="6" fill="#D9D9D9"/>
<circle cx="158" cy="114" r="6" fill="#D9D9D9"/>
<circle cx="158" cy="458" r="6" fill="#D9D9D9"/>
<circle cx="158" cy="132" r="6" fill="#D9D9D9"/>
<circle cx="158" cy="458" r="6" fill="#D9D9D9"/>
<circle cx="158" cy="132" r="6" fill="#D9D9D9"/>
<circle cx="158" cy="476" r="6" fill="#D9D9D9"/>
<circle cx="158" cy="150" r="6" fill="#D9D9D9"/>
<circle cx="158" cy="476" r="6" fill="#D9D9D9"/>
<circle cx="158" cy="150" r="6" fill="#D9D9D9"/>
<circle cx="158" cy="494" r="6" fill="#D9D9D9"/>
<circle cx="158" cy="168" r="6" fill="#D9D9D9"/>
<circle cx="158" cy="494" r="6" fill="#D9D9D9"/>
<circle cx="158" cy="168" r="6" fill="#D9D9D9"/>
<circle cx="158" cy="512" r="6" fill="#D9D9D9"/>
<circle cx="158" cy="186" r="6" fill="#D9D9D9"/>
<circle cx="158" cy="512" r="6" fill="#D9D9D9"/>
<circle cx="158" cy="186" r="6" fill="#D9D9D9"/>
<circle cx="177" cy="332" r="6" fill="#D9D9D9"/>
<circle cx="177" cy="6" r="6" fill="#D9D9D9"/>
<circle cx="177" cy="350" r="6" fill="#D9D9D9"/>
<circle cx="177" cy="24" r="6" fill="#D9D9D9"/>
<circle cx="177" cy="368" r="6" fill="#D9D9D9"/>
<circle cx="177" cy="42" r="6" fill="#D9D9D9"/>
<circle cx="177" cy="386" r="6" fill="#D9D9D9"/>
<circle cx="177" cy="60" r="6" fill="#D9D9D9"/>
<circle cx="177" cy="404" r="6" fill="#D9D9D9"/>
<circle cx="177" cy="78" r="6" fill="#D9D9D9"/>
<circle cx="177" cy="422" r="6" fill="#D9D9D9"/>
<circle cx="177" cy="96" r="6" fill="#D9D9D9"/>
<circle cx="177" cy="440" r="6" fill="#D9D9D9"/>
<circle cx="177" cy="114" r="6" fill="#D9D9D9"/>
<circle cx="177" cy="458" r="6" fill="#D9D9D9"/>
<circle cx="177" cy="132" r="6" fill="#D9D9D9"/>
<circle cx="177" cy="476" r="6" fill="#D9D9D9"/>
<circle cx="177" cy="150" r="6" fill="#D9D9D9"/>
<circle cx="177" cy="494" r="6" fill="#D9D9D9"/>
<circle cx="177" cy="168" r="6" fill="#D9D9D9"/>
<circle cx="177" cy="512" r="6" fill="#D9D9D9"/>
<circle cx="177" cy="186" r="6" fill="#D9D9D9"/>
</svg>
